Coordinates
version=1
nRows=16
nColumns=22
inDegrees=yes

Units are S.I. units (second, meters, Newtons, ...)
If the header above contains a line with 'inDegrees', this indicates whether rotational values are in degrees (yes) or radians (no).

endheader
time	pelvis_tilt	pelvis_list	pelvis_rotation	pelvis_tx	pelvis_ty	pelvis_tz	hip_flexion_r	hip_adduction_r	hip_rotation_r	knee_angle_r	ankle_angle_r	subtalar_angle_r	hip_flexion_l	hip_adduction_l	hip_rotation_l	knee_angle_l	ankle_angle_l	subtalar_angle_l	lumbar_extension	lumbar_bending	lumbar_rotation
      1.40000000	      3.93909842	     -3.91072300	      7.65157910	     -1.36953242	      0.95314507	     -0.62240721	     -4.15009465	      4.52920499	    -11.40516673	     -7.09273256	      8.56739111	      0.29246776	     -0.22251903	     -5.02396513	    -14.88227358	    -17.40997532	     21.72953474	     -7.16061602	    -12.03449811	      5.28416467	     -9.22662973
      1.41000000	      3.91684095	     -3.96086035	      7.64651631	     -1.36904397	      0.95301667	     -0.62268602	     -4.16660589	      4.56554024	    -11.36949703	     -7.07055896	      8.59137479	      0.32456289	     -0.14420544	     -5.06733793	    -14.84201541	    -17.56970009	     21.85625801	     -7.28113826	    -12.04293030	      5.32206557	     -9.19743743
      1.42000000	      3.89730324	     -4.01282355	      7.65085527	     -1.36853012	      0.95288278	     -0.62300694	     -4.18443866	      4.60347028	    -11.34326867	     -7.05555939	      8.62009832	      0.35487944	     -0.05635406	     -5.11130400	    -14.78494323	    -17.75296614	     21.99816441	     -7.41580446	    -12.05532517	      5.36479106	     -9.17067800
      1.43000000	      3.88252948	     -4.06602045	      7.66787594	     -1.36799238	      0.95274510	     -0.62337332	     -4.20653122	      4.64254623	    -11.32617590	     -7.04663787	      8.65431495	      0.38236099	      0.04030882	     -5.15604083	    -14.70658640	    -17.96058295	     22.15091950	     -7.55454289	    -12.07434077	      5.41138931	     -9.14894672
      1.44000000	      3.87066103	     -4.12174147	      7.69925914	     -1.36743648	      0.95259963	     -0.62378863	     -4.23127368	      4.68465502	    -11.31991300	     -7.04147154	      8.68964644	      0.40669126	      0.14824931	     -5.20215478	    -14.60798963	    -18.19071123	     22.31333817	     -7.69478540	    -12.09901509	      5.46355708	     -9.13268743
      1.45000000	      3.86119194	     -4.18762568	      7.74836590	     -1.36685313	      0.95243708	     -0.62425137	     -4.25897881	      4.73894272	    -11.32418359	     -7.03866942	      8.73031142	      0.42910888	      0.27179340	     -5.25896023	    -14.48440624	    -18.44887793	     22.49449609	     -7.84401899	    -12.12332716	      5.53071565	     -9.13008996
      1.46000000	      3.80948071	     -4.25940045	      7.81417777	     -1.36625711	      0.95219031	     -0.62475914	     -4.23533299	      4.79176355	    -11.37653003	     -7.04618646	      8.73048443	      0.45875067	      0.46866956	     -5.31536316	    -14.32528254	    -18.75273411	     22.71601660	     -8.12684839	    -12.09551242	      5.59612775	     -9.12229601
      1.47000000	      3.82632122	     -4.34258818	      7.89020647	     -1.36564650	      0.95202667	     -0.62531933	     -4.28865840	      4.86762504	    -11.37349615	     -7.05155284	      8.81883954	      0.47496834	      0.58752225	     -5.38632209	    -14.13411064	    -19.04405548	     22.88689098	     -8.24723259	    -12.15537738	      5.69546929	     -9.13584846
      1.48000000	      3.75860730	     -4.43921844	      7.99295361	     -1.36504305	      0.95170312	     -0.62593635	     -4.22685162	      4.94088692	    -11.45860452	     -7.09883466	      8.81398845	      0.50197376	      0.84371326	     -5.45974150	    -13.88983119	    -19.40958195	     23.14916756	     -8.63753061	    -12.10903841	      5.79613535	     -9.16255091
      1.49000000	      3.73321347	     -4.54399766	      8.09636588	     -1.36437759	      0.95142395	     -0.62658437	     -4.22332315	      5.03005440	    -11.53117044	     -7.12715919	      8.87012022	      0.52595940	      1.04368755	     -5.54103092	    -13.62631261	    -19.76189561	     23.39057453	     -8.95762174	    -12.11042942	      5.91272486	     -9.17603903
      1.50000000	      3.73202906	     -4.64921610	      8.21252118	     -1.36363743	      0.95115334	     -0.62727980	     -4.26221127	      5.12437290	    -11.61530906	     -7.13341479	      8.94285325	      0.54696219	      1.22329354	     -5.62969102	    -13.37433482	    -20.13513195	     23.65033732	     -9.19524835	    -12.13128221	      6.03196059	     -9.18518238
      1.51000000	      3.71839525	     -4.77153855	      8.32042473	     -1.36288734	      0.95084569	     -0.62799575	     -4.26093485	      5.22805587	    -11.70308766	     -7.18891249	      9.02414417	      0.57559327	      1.42190780	     -5.72729993	    -13.09206453	    -20.51951421	     23.91123984	     -9.51182510	    -12.13888224	      6.16976438	     -9.18719508
      1.52000000	      3.67215423	     -4.89171289	      8.41078535	     -1.36213531	      0.95048976	     -0.62875139	     -4.18319328	      5.30885649	    -11.79245281	     -7.32894302	      9.08907725	      0.62055091	      1.64502829	     -5.80196193	    -12.77501158	    -20.88846734	     24.16294590	    -10.00562693	    -12.11343691	      6.30338503	     -9.16322295
      1.53000000	      3.66586168	     -5.00777295	      8.49944527	     -1.36127935	      0.95017316	     -0.62953354	     -4.16474831	      5.39101741	    -11.88999185	     -7.44997298	      9.20736617	      0.66862789	      1.81160001	     -5.88030594	    -12.48883862	    -21.25199927	     24.41746847	    -10.41003118	    -12.12561327	      6.43091229	     -9.11132938
      1.54000000	      3.66806388	     -5.11441451	      8.58224499	     -1.36038309	      0.94985454	     -0.63036794	     -4.13417816	      5.45448462	    -11.98747585	     -7.62228029	      9.34688016	      0.72007197	      1.95689423	     -5.94555538	    -12.22068441	    -21.60605539	     24.68289629	    -10.78830987	    -12.14947230	      6.55242697	     -9.07301443
      1.55000000	      3.70489124	     -5.20619970	      8.65750076	     -1.35938679	      0.94957089	     -0.63124385	     -4.14513020	      5.50331456	    -12.08369939	     -7.80200502	      9.55052490	      0.76346644	      2.04029846	     -6.00251916	    -12.00708588	    -21.94011657	     24.94809881	    -11.04227681	    -12.20891456	      6.65757846	     -9.00812423
